{
    "asset": {
        "generator": "FBX2glTF v0.9.7",
        "version": "2.0"
    },
    "scene": 0,
    "buffers": [
        {
            "byteLength": 348256,
            "uri": "buffer.bin"
        }
    ],
    "bufferViews": [
        {
            "buffer": 0,
            "byteLength": 4716,
            "byteOffset": 0,
            "target": 34963
        },
        {
            "buffer": 0,
            "byteLength": 17520,
            "byteOffset": 4716,
            "target": 34962
        },
        {
            "buffer": 0,
            "byteLength": 17520,
            "byteOffset": 22236,
            "target": 34962
        },
        {
            "buffer": 0,
            "byteLength": 11680,
            "byteOffset": 39756,
            "target": 34962
        },
        {
            "buffer": 0,
            "byteLength": 16680,
            "byteOffset": 51436,
            "target": 34963
        },
        {
            "buffer": 0,
            "byteLength": 46884,
            "byteOffset": 68116,
            "target": 34962
        },
        {
            "buffer": 0,
            "byteLength": 46884,
            "byteOffset": 115000,
            "target": 34962
        },
        {
            "buffer": 0,
            "byteLength": 31256,
            "byteOffset": 161884,
            "target": 34962
        },
        {
            "buffer": 0,
            "byteLength": 10716,
            "byteOffset": 193140,
            "target": 34963
        },
        {
            "buffer": 0,
            "byteLength": 33528,
            "byteOffset": 203856,
            "target": 34962
        },
        {
            "buffer": 0,
            "byteLength": 33528,
            "byteOffset": 237384,
            "target": 34962
        },
        {
            "buffer": 0,
            "byteLength": 22352,
            "byteOffset": 270912,
            "target": 34962
        },
        {
            "buffer": 0,
            "byteLength": 2688,
            "byteOffset": 293264,
            "target": 34963
        },
        {
            "buffer": 0,
            "byteLength": 7536,
            "byteOffset": 295952,
            "target": 34962
        },
        {
            "buffer": 0,
            "byteLength": 7536,
            "byteOffset": 303488,
            "target": 34962
        },
        {
            "buffer": 0,
            "byteLength": 5024,
            "byteOffset": 311024,
            "target": 34962
        },
        {
            "buffer": 0,
            "byteLength": 3600,
            "byteOffset": 316048,
            "target": 34963
        },
        {
            "buffer": 0,
            "byteLength": 10728,
            "byteOffset": 319648,
            "target": 34962
        },
        {
            "buffer": 0,
            "byteLength": 10728,
            "byteOffset": 330376,
            "target": 34962
        },
        {
            "buffer": 0,
            "byteLength": 7152,
            "byteOffset": 341104,
            "target": 34962
        }
    ],
    "scenes": [
        {
            "name": "Root Scene",
            "nodes": [
                0
            ]
        }
    ],
    "accessors": [
        {
            "componentType": 5123,
            "type": "SCALAR",
            "count": 2358,
            "bufferView": 0,
            "byteOffset": 0
        },
        {
            "componentType": 5126,
            "type": "VEC3",
            "count": 1460,
            "bufferView": 1,
            "byteOffset": 0,
            "min": [
                -0.718301475048065,
                -0.196264699101448,
                -0.502629578113556
            ],
            "max": [
                0.138301491737366,
                0.251380175352097,
                0.3959019780159
            ]
        },
        {
            "componentType": 5126,
            "type": "VEC3",
            "count": 1460,
            "bufferView": 2,
            "byteOffset": 0
        },
        {
            "componentType": 5126,
            "type": "VEC2",
            "count": 1460,
            "bufferView": 3,
            "byteOffset": 0
        },
        {
            "componentType": 5123,
            "type": "SCALAR",
            "count": 8340,
            "bufferView": 4,
            "byteOffset": 0
        },
        {
            "componentType": 5126,
            "type": "VEC3",
            "count": 3907,
            "bufferView": 5,
            "byteOffset": 0,
            "min": [
                -0.746602892875671,
                -0.207424908876419,
                -0.456617385149002
            ],
            "max": [
                0.166602894663811,
                0.249610096216202,
                0.405232191085815
            ]
        },
        {
            "componentType": 5126,
            "type": "VEC3",
            "count": 3907,
            "bufferView": 6,
            "byteOffset": 0
        },
        {
            "componentType": 5126,
            "type": "VEC2",
            "count": 3907,
            "bufferView": 7,
            "byteOffset": 0
        },
        {
            "componentType": 5123,
            "type": "SCALAR",
            "count": 5358,
            "bufferView": 8,
            "byteOffset": 0
        },
        {
            "componentType": 5126,
            "type": "VEC3",
            "count": 2794,
            "bufferView": 9,
            "byteOffset": 0,
            "min": [
                -0.731961667537689,
                -0.207424908876419,
                -0.504789352416992
            ],
            "max": [
                0.151961803436279,
                0.209344193339348,
                0.405232191085815
            ]
        },
        {
            "componentType": 5126,
            "type": "VEC3",
            "count": 2794,
            "bufferView": 10,
            "byteOffset": 0
        },
        {
            "componentType": 5126,
            "type": "VEC2",
            "count": 2794,
            "bufferView": 11,
            "byteOffset": 0
        },
        {
            "componentType": 5123,
            "type": "SCALAR",
            "count": 1344,
            "bufferView": 12,
            "byteOffset": 0
        },
        {
            "componentType": 5126,
            "type": "VEC3",
            "count": 628,
            "bufferView": 13,
            "byteOffset": 0,
            "min": [
                -0.746602892875671,
                -0.0999999940395355,
                -0.504789352416992
            ],
            "max": [
                0.166602894663811,
                0.229216992855072,
                0.197852090001106
            ]
        },
        {
            "componentType": 5126,
            "type": "VEC3",
            "count": 628,
            "bufferView": 14,
            "byteOffset": 0
        },
        {
            "componentType": 5126,
            "type": "VEC2",
            "count": 628,
            "bufferView": 15,
            "byteOffset": 0
        },
        {
            "componentType": 5123,
            "type": "SCALAR",
            "count": 1800,
            "bufferView": 16,
            "byteOffset": 0
        },
        {
            "componentType": 5126,
            "type": "VEC3",
            "count": 894,
            "bufferView": 17,
            "byteOffset": 0,
            "min": [
                -0.680000007152557,
                -0.114999994635582,
                -0.219999998807907
            ],
            "max": [
                0.0899999961256981,
                0.224225103855133,
                0.355232179164886
            ]
        },
        {
            "componentType": 5126,
            "type": "VEC3",
            "count": 894,
            "bufferView": 18,
            "byteOffset": 0
        },
        {
            "componentType": 5126,
            "type": "VEC2",
            "count": 894,
            "bufferView": 19,
            "byteOffset": 0
        }
    ],
    "images": [
        {
            "name": "dark(Clone).png",
            "uri": "dark(Clone).png"
        },
        {
            "name": "metal(Clone).png",
            "uri": "metal(Clone).png"
        },
        {
            "name": "metalDark(Clone).png",
            "uri": "metalDark(Clone).png"
        },
        {
            "name": "metalRed(Clone).png",
            "uri": "metalRed(Clone).png"
        },
        {
            "name": "_defaultMat(Clone).png",
            "uri": "_defaultMat(Clone).png"
        }
    ],
    "samplers": [
        {}
    ],
    "textures": [
        {
            "name": "dark(Clone)",
            "sampler": 0,
            "source": 0
        },
        {
            "name": "metal(Clone)",
            "sampler": 0,
            "source": 1
        },
        {
            "name": "metalDark(Clone)",
            "sampler": 0,
            "source": 2
        },
        {
            "name": "metalRed(Clone)",
            "sampler": 0,
            "source": 3
        },
        {
            "name": "_defaultMat(Clone)",
            "sampler": 0,
            "source": 4
        }
    ],
    "materials": [
        {
            "name": "dark(Clone)",
            "alphaMode": "OPAQUE",
            "extras": {
                "fromFBX": {
                    "shadingModel": "Phong",
                    "isTruePBR": false
                }
            },
            "pbrMetallicRoughness": {
                "baseColorTexture": {
                    "index": 0,
                    "texCoord": 0
                },
                "baseColorFactor": [
                    1.0,
                    1.0,
                    1.0,
                    1.0
                ],
                "metallicFactor": 0.400000005960464,
                "roughnessFactor": 1.0
            }
        },
        {
            "name": "metal(Clone)",
            "alphaMode": "OPAQUE",
            "extras": {
                "fromFBX": {
                    "shadingModel": "Phong",
                    "isTruePBR": false
                }
            },
            "pbrMetallicRoughness": {
                "baseColorTexture": {
                    "index": 1,
                    "texCoord": 0
                },
                "baseColorFactor": [
                    1.0,
                    1.0,
                    1.0,
                    1.0
                ],
                "metallicFactor": 0.400000005960464,
                "roughnessFactor": 1.0
            }
        },
        {
            "name": "metalDark(Clone)",
            "alphaMode": "OPAQUE",
            "extras": {
                "fromFBX": {
                    "shadingModel": "Phong",
                    "isTruePBR": false
                }
            },
            "pbrMetallicRoughness": {
                "baseColorTexture": {
                    "index": 2,
                    "texCoord": 0
                },
                "baseColorFactor": [
                    1.0,
                    1.0,
                    1.0,
                    1.0
                ],
                "metallicFactor": 0.400000005960464,
                "roughnessFactor": 1.0
            }
        },
        {
            "name": "metalRed(Clone)",
            "alphaMode": "OPAQUE",
            "extras": {
                "fromFBX": {
                    "shadingModel": "Phong",
                    "isTruePBR": false
                }
            },
            "pbrMetallicRoughness": {
                "baseColorTexture": {
                    "index": 3,
                    "texCoord": 0
                },
                "baseColorFactor": [
                    1.0,
                    1.0,
                    1.0,
                    1.0
                ],
                "metallicFactor": 0.400000005960464,
                "roughnessFactor": 1.0
            }
        },
        {
            "name": "_defaultMat(Clone)",
            "alphaMode": "OPAQUE",
            "extras": {
                "fromFBX": {
                    "shadingModel": "Phong",
                    "isTruePBR": false
                }
            },
            "pbrMetallicRoughness": {
                "baseColorTexture": {
                    "index": 4,
                    "texCoord": 0
                },
                "baseColorFactor": [
                    1.0,
                    1.0,
                    1.0,
                    1.0
                ],
                "metallicFactor": 0.400000005960464,
                "roughnessFactor": 1.0
            }
        }
    ],
    "meshes": [
        {
            "name": "mergedBlocks",
            "primitives": [
                {
                    "material": 0,
                    "mode": 4,
                    "attributes": {
                        "NORMAL": 2,
                        "POSITION": 1,
                        "TEXCOORD_0": 3
                    },
                    "indices": 0
                },
                {
                    "material": 1,
                    "mode": 4,
                    "attributes": {
                        "NORMAL": 6,
                        "POSITION": 5,
                        "TEXCOORD_0": 7
                    },
                    "indices": 4
                },
                {
                    "material": 2,
                    "mode": 4,
                    "attributes": {
                        "NORMAL": 10,
                        "POSITION": 9,
                        "TEXCOORD_0": 11
                    },
                    "indices": 8
                },
                {
                    "material": 3,
                    "mode": 4,
                    "attributes": {
                        "NORMAL": 14,
                        "POSITION": 13,
                        "TEXCOORD_0": 15
                    },
                    "indices": 12
                },
                {
                    "material": 4,
                    "mode": 4,
                    "attributes": {
                        "NORMAL": 18,
                        "POSITION": 17,
                        "TEXCOORD_0": 19
                    },
                    "indices": 16
                }
            ]
        }
    ],
    "nodes": [
        {
            "name": "RootNode",
            "translation": [
                0.0,
                0.0,
                0.0
            ],
            "rotation": [
                0.0,
                0.0,
                0.0,
                1.0
            ],
            "scale": [
                1.0,
                1.0,
                1.0
            ],
            "children": [
                1
            ]
        },
        {
            "name": "mergedBlocks",
            "translation": [
                0.0,
                0.0,
                0.0
            ],
            "rotation": [
                0.0,
                0.0,
                0.0,
                1.0
            ],
            "scale": [
                10.0,
                10.0,
                10.0
            ],
            "mesh": 0
        }
    ]
}