# Blender v2.77 (sub 0) OBJ File: 'ship.blend'
# www.blender.org
mtllib ship.mtl
o Default
v -0.375925 0.169161 -0.157270
v 0.400000 0.050500 -0.400000
v -0.392304 0.248545 -0.897309
v -0.616304 0.076545 -1.185309
v -0.806182 -0.115455 -0.998123
v -0.562304 -0.059455 -0.555309
v -0.907396 0.093875 -1.499309
v -1.059407 -0.200455 -1.279309
v -1.566367 0.086545 -1.729813
v -0.620304 0.003545 -1.503309
v -0.375675 0.169333 -0.157864
v -0.195304 0.122545 -1.074309
v -0.392304 0.002545 -1.385309
v -0.083252 0.576433 0.040232
v -0.074004 0.437273 0.226106
v -0.064778 0.329069 0.365475
v -0.106941 0.598125 -0.138833
v -0.235825 0.341178 0.073249
v -0.087629 0.242810 0.464560
v -0.660320 0.530091 -0.813558
v -0.884320 0.358091 -1.101558
v -1.074198 0.166091 -0.914373
v -0.830320 0.222091 -0.471558
v -0.866625 0.569863 -0.680024
v -0.947423 0.550734 -0.945311
v -1.093429 0.378616 -0.927185
v -1.019982 0.279597 -0.599066
v -1.037676 0.617371 -0.718222
v -1.268625 0.588366 -0.870185
v -1.355263 0.404168 -0.771009
v -1.080626 0.406549 -0.572077
v -0.749356 0.617371 0.164426
v -0.980305 0.588366 0.012464
v -1.066943 0.404168 0.111639
v -0.792306 0.406549 0.310571
v -0.807596 0.542189 0.388530
v -0.885575 0.534008 0.388686
v -0.890540 0.482052 0.425498
v -0.794975 0.482724 0.429600
v 0.375925 0.169161 -0.157270
v -0.000000 -0.124232 1.320070
v -0.000000 0.153605 1.264718
v -0.400000 0.050500 -0.400000
v 0.392304 0.248545 -0.897309
v 0.616304 0.076545 -1.185309
v 0.806182 -0.115455 -0.998123
v 0.562304 -0.059455 -0.555309
v 0.907396 0.093875 -1.499309
v 1.059407 -0.200455 -1.279309
v 1.566367 0.086545 -1.729813
v 0.620304 0.003545 -1.503309
v 0.375675 0.169333 -0.157864
v 0.000000 0.415000 -0.654382
v 0.195304 0.122545 -1.074309
v 0.000000 0.070101 -0.606322
v 0.392304 0.002545 -1.385309
v 0.083252 0.576433 0.040232
v 0.074004 0.437273 0.226106
v 0.064778 0.329069 0.365475
v 0.106941 0.598125 -0.138833
v 0.235825 0.341178 0.073249
v 0.087629 0.242810 0.464560
v 0.000000 0.598125 -0.138833
v -0.000000 0.329069 0.365475
v -0.000000 0.576433 0.040232
v -0.000000 0.242810 0.464560
v -0.000000 0.437273 0.226106
v 0.660320 0.530091 -0.813558
v 0.884320 0.358091 -1.101558
v 1.074198 0.166091 -0.914373
v 0.830320 0.222091 -0.471558
v 0.866626 0.569863 -0.680024
v 0.947423 0.550734 -0.945311
v 1.093429 0.378616 -0.927184
v 1.019982 0.279597 -0.599066
v 1.037676 0.617371 -0.718222
v 1.268626 0.588366 -0.870185
v 1.355264 0.404168 -0.771009
v 1.080626 0.406549 -0.572077
v 0.749356 0.617371 0.164426
v 0.980305 0.588366 0.012464
v 1.066943 0.404168 0.111639
v 0.792306 0.406549 0.310571
v 0.807596 0.542189 0.388530
v 0.885575 0.534008 0.388686
v 0.890540 0.482052 0.425498
v 0.794975 0.482724 0.429600
vt 0.0000 0.0000
vt 1.0000 0.0000
vt 1.0000 1.0000
vt 1.0000 0.0000
vt 0.0000 0.0000
vt 0.0000 0.0000
vt 1.0000 0.0000
vt 0.0000 0.0000
vt 1.0000 0.0000
vt 1.0000 1.0000
vt 0.0000 1.0000
vt 0.0000 0.0000
vt 1.0000 0.0000
vt 1.0000 1.0000
vt 0.0000 0.0000
vt 1.0000 0.0000
vt 0.0000 0.0000
vt 1.0000 0.0000
vt 1.0000 1.0000
vt 0.0000 1.0000
vt 0.0000 0.0000
vt 1.0000 1.0000
vt 0.0000 1.0000
vt 1.0000 0.0000
vt 1.0000 1.0000
vt 0.0000 1.0000
vt 1.0000 1.0000
vt 0.0000 1.0000
vt 0.0000 0.0000
vt 1.0000 1.0000
vt 1.0000 0.0000
vt 0.0000 0.0000
vt 1.0000 0.0000
vt 1.0000 1.0000
vt 0.0000 1.0000
vt 0.0000 0.0000
vt 0.0000 0.0000
vt 1.0000 0.0000
vt 1.0000 1.0000
vt 0.0000 0.5000
vt 1.0000 0.5000
vt 1.0000 1.0000
vt 0.0000 1.0000
vt 0.0000 0.5000
vt 1.0000 0.5000
vt 1.0000 1.0000
vt 0.0000 1.0000
vt 0.5000 1.0000
vt 0.7939 0.0955
vt 0.2061 0.0955
vt 0.0245 0.6545
vt 0.0000 0.0000
vt 0.5000 0.0000
vt 1.0000 0.0000
vt 1.0000 0.0000
vt 1.0000 1.0000
vt 0.0000 0.0000
vt 1.0000 0.0000
vt 1.0000 1.0000
vt 0.0000 0.0000
vt 1.0000 0.0000
vt 0.5000 1.0000
vt 0.0000 1.0000
vt 1.0000 0.0000
vt 1.0000 1.0000
vt 0.0000 1.0000
vt 0.5000 0.0000
vt 0.5000 1.0000
vt 0.0000 1.0000
vt 1.0000 1.0000
vt 1.0000 1.0000
vt 0.0000 1.0000
vt 0.0000 0.0000
vt 1.0000 0.0000
vt 0.0000 0.0000
vt 1.0000 0.0000
vt 1.0000 0.0000
vt 0.0000 0.0000
vt 0.0000 0.0000
vt 1.0000 0.0000
vt 0.0000 0.0000
vt 1.0000 0.0000
vt 0.0000 0.0000
vt 1.0000 0.0000
vt 1.0000 0.0000
vt 0.0000 0.0000
vt 0.0000 0.0000
vt 1.0000 0.0000
vt 0.0000 0.0000
vt 1.0000 0.0000
vt 1.0000 1.0000
vt 0.0000 1.0000
vt 1.0000 0.0000
vt 0.0000 0.0000
vt 0.0000 0.0000
vt 1.0000 0.0000
vt 1.0000 1.0000
vt 0.0000 1.0000
vt 0.0000 0.0000
vt 1.0000 0.0000
vt 1.0000 0.0000
vt 1.0000 1.0000
vt 0.0000 1.0000
vt 0.0000 0.0000
vt 1.0000 0.0000
vt 0.0000 0.0000
vt 1.0000 1.0000
vt 0.0000 1.0000
vt 0.0000 0.0000
vt 1.0000 0.0000
vt 1.0000 0.0000
vt 0.0000 0.0000
vt 0.0000 0.0000
vt 0.0000 0.0000
vt 0.0000 1.0000
vt 1.0000 1.0000
vt 1.0000 0.0000
vt 0.0000 0.0000
vt 1.0000 1.0000
vt 1.0000 0.0000
vt 0.0000 0.0000
vt 1.0000 0.0000
vt 0.0000 0.0000
vt 1.0000 1.0000
vt 1.0000 0.0000
vt 0.0000 0.0000
vt 0.0000 1.0000
vt 1.0000 1.0000
vt 1.0000 0.0000
vt 0.0000 1.0000
vt 1.0000 1.0000
vt 0.0000 0.0000
vt 1.0000 1.0000
vt 1.0000 0.0000
vt 0.0000 0.0000
vt 0.0000 1.0000
vt 1.0000 1.0000
vt 1.0000 0.0000
vt 0.0000 0.0000
vt 1.0000 0.0000
vt 0.0000 1.0000
vt 1.0000 1.0000
vt 0.0000 1.0000
vt 1.0000 1.0000
vt 0.0245 0.6545
vt 0.2061 0.0955
vt 0.0000 0.0000
vt 1.0000 1.0000
vt 1.0000 0.0000
vt 0.0000 0.0000
vt 1.0000 1.0000
vt 1.0000 0.0000
vt 0.0000 0.0000
vt 1.0000 0.0000
vt 0.0000 1.0000
vt 1.0000 1.0000
vt 1.0000 0.0000
vt 0.0000 1.0000
vt 0.0000 1.0000
vt 0.0000 1.0000
vt 1.0000 1.0000
vt 1.0000 1.0000
vt 1.0000 0.0000
vt 0.0000 0.0000
vt 1.0000 0.0000
vt 0.0000 0.0000
vt 1.0000 0.0000
vt 1.0000 0.0000
vt 0.0000 0.0000
vt 0.0000 0.0000
vt 1.0000 0.0000
vt 0.0000 0.0000
vt 1.0000 0.0000
vt 0.0000 0.0000
vt 1.0000 0.0000
vt 1.0000 0.0000
vt 0.0000 0.0000
vt 0.0000 0.0000
vt 1.0000 0.0000
vt 0.0000 0.0000
vt 0.0000 1.0000
vt 1.0000 1.0000
vt 1.0000 0.0000
vt 1.0000 0.0000
vt 0.0000 0.0000
vt 0.0000 0.0000
vt 0.0000 1.0000
vt 1.0000 1.0000
vt 1.0000 0.0000
vt 0.0000 0.0000
vt 0.0000 1.0000
vt 1.0000 1.0000
vt 1.0000 0.0000
vt 1.0000 0.0000
vt 0.0000 0.0000
vt 0.0000 0.0000
vt 0.0000 1.0000
vt 1.0000 1.0000
vn -0.9752 0.2187 0.0337
vn -0.9404 -0.1596 0.3002
vn -0.9654 0.0510 0.2558
vn 0.3848 0.6647 -0.6404
vn 0.3960 0.6641 -0.6342
vn 0.4880 0.5933 -0.6402
vn 0.3481 0.5893 -0.7291
vn -0.4356 0.7504 0.4972
vn -0.6068 0.6946 0.3863
vn -0.5156 0.7101 0.4796
vn -0.5404 0.6919 0.4788
vn -0.1771 0.6775 0.7139
vn -0.3019 0.6144 0.7289
vn -0.2546 0.6599 0.7069
vn 0.2033 0.7279 -0.6549
vn 0.1661 0.7391 -0.6527
vn 0.2196 0.7267 -0.6509
vn -0.5562 0.8238 0.1098
vn -0.6885 0.7119 0.1386
vn -0.6556 0.7190 0.2306
vn -0.6133 0.7521 0.2414
vn 0.6535 0.4806 -0.5848
vn 0.6393 0.4136 -0.6483
vn 0.6587 0.3971 -0.6391
vn 0.6496 0.4232 -0.6316
vn 0.2117 0.9650 -0.1546
vn 0.1482 0.9612 -0.2326
vn 0.2381 0.9556 -0.1734
vn 0.2339 0.9459 -0.2246
vn -0.0451 0.8867 -0.4602
vn -0.0553 0.8916 -0.4495
vn -0.0086 0.8854 -0.4648
vn -0.0091 0.9201 -0.3917
vn 0.0712 -0.8030 -0.5917
vn -0.1207 -0.8471 -0.5176
vn 0.2410 -0.8061 -0.5404
vn 0.4645 -0.8547 -0.2317
vn 0.2415 -0.9685 0.0614
vn 0.3737 -0.9269 0.0342
vn 0.0875 -0.9959 -0.0206
vn 0.4238 -0.8837 0.1985
vn 0.2316 -0.9635 0.1341
vn 0.4857 -0.8718 0.0637
vn 0.4131 -0.8780 0.2418
vn 0.2007 -0.9234 0.3272
vn 0.1360 -0.9639 0.2291
vn 0.2716 -0.9289 0.2518
vn 0.2709 -0.8977 0.3476
vn 0.7731 0.0875 0.6282
vn -0.0000 0.8005 0.5993
vn 0.0000 0.7899 0.6133
vn -0.2223 -0.9722 -0.0729
vn -0.2063 -0.9770 0.0543
vn -0.6072 -0.7944 0.0148
vn -0.4470 -0.8562 -0.2590
vn -0.0743 0.9175 -0.3907
vn 0.0000 0.9423 -0.3347
vn -0.7732 0.6046 0.1912
vn -0.8490 0.5182 0.1030
vn -0.8148 0.5394 0.2125
vn -0.8934 0.1922 0.4061
vn -0.8343 0.2344 0.4990
vn -0.8609 0.3542 0.3652
vn -0.4493 0.8714 0.1968
vn -0.7464 0.6413 0.1778
vn -0.2781 0.9513 0.1333
vn -0.0000 0.9927 0.1203
vn -0.7830 0.5461 0.2979
vn -0.7844 0.5446 0.2968
vn -0.7851 0.5415 0.3006
vn -0.7844 0.5448 0.2964
vn -0.7550 0.5361 0.3777
vn -0.7503 0.5081 0.4229
vn -0.7491 0.5077 0.4256
vn -0.7361 0.5779 0.3524
vn -0.8353 0.4818 -0.2648
vn -0.7886 0.5095 -0.3444
vn -0.7093 0.5967 -0.3752
vn -0.0000 0.7542 0.6566
vn -0.0000 0.9938 0.1108
vn 0.2851 0.9524 0.1082
vn -0.7356 -0.6002 0.3140
vn -0.8083 -0.4416 0.3895
vn -0.8741 -0.3611 0.3249
vn -0.8462 -0.4874 0.2154
vn 0.6851 0.3126 0.6579
vn 0.6222 0.3254 0.7120
vn 0.6898 0.3629 0.6265
vn 0.5705 0.3505 0.7428
vn -0.5952 -0.2694 -0.7571
vn -0.6060 -0.3264 -0.7255
vn -0.5935 -0.1537 -0.7900
vn -0.5077 -0.3421 -0.7907
vn -0.4969 -0.7712 0.3979
vn -0.5303 -0.6876 0.4960
vn -0.6471 -0.6105 0.4568
vn -0.6326 -0.7162 0.2949
vn 0.2608 0.2686 0.9273
vn 0.2056 0.2433 0.9479
vn 0.2754 0.3357 0.9008
vn 0.1109 0.2685 0.9569
vn 0.2355 0.4407 0.8662
vn 0.1453 0.4618 0.8750
vn 0.2281 0.5551 0.7999
vn 0.0873 0.4735 0.8765
vn 0.2155 0.9034 -0.3708
vn 0.2630 0.8872 -0.3791
vn 0.3553 0.8420 -0.4058
vn 0.2149 0.8470 -0.4863
vn -0.6945 0.1423 -0.7052
vn -0.7083 0.1389 -0.6922
vn -0.6643 0.2693 -0.6973
vn -0.6215 0.0744 -0.7799
vn -0.8180 0.4718 0.3291
vn -0.8550 0.4134 0.3132
vn -0.7428 0.5592 0.3681
vn -0.8537 0.4751 0.2132
vn 0.0774 0.9765 -0.2014
vn 0.0937 0.9829 -0.1582
vn 0.2237 0.9540 -0.1996
vn 0.0628 0.9666 -0.2486
vn -0.4320 -0.0950 -0.8968
vn -0.4217 -0.1904 -0.8865
vn -0.4605 0.0015 -0.8877
vn -0.3168 -0.1323 -0.9392
vn -0.2894 -0.9552 0.0629
vn -0.3143 -0.9279 0.2005
vn -0.4245 -0.8943 0.1416
vn -0.4494 -0.8920 -0.0490
vn 0.9922 -0.0605 0.1093
vn 0.9800 -0.0766 0.1839
vn 0.9916 0.0563 0.1161
vn 0.9642 -0.0714 0.2553
vn 0.0738 -0.9906 -0.1156
vn 0.1132 -0.9933 -0.0219
vn 0.0062 -0.9950 0.0997
vn -0.1159 -0.9931 -0.0203
vn 0.8285 -0.4251 -0.3645
vn 0.8475 -0.4546 -0.2740
vn 0.8638 -0.3484 -0.3639
vn 0.8538 -0.4643 -0.2354
vn -0.1062 0.9874 0.1175
vn -0.1123 0.9863 0.1210
vn -0.0810 0.9965 0.0218
vn -0.2397 0.9698 0.0453
vn -0.0007 0.5118 0.8591
vn -0.0019 0.5131 0.8583
vn -0.0309 0.4606 0.8871
vn 0.0546 0.5597 0.8269
vn -0.2090 0.9305 0.3010
vn -0.1792 0.9409 0.2873
vn -0.1571 0.9736 0.1654
vn -0.2916 0.9243 0.2462
vn -0.8234 0.4363 0.3629
vn -0.8448 0.3835 0.3731
vn -0.7436 0.5494 0.3811
vn -0.8625 0.4401 0.2497
vn -0.1640 -0.9397 0.3000
vn -0.1047 -0.9050 0.4124
vn -0.1968 -0.8521 0.4850
vn -0.3442 -0.8443 0.4108
vn 0.9972 -0.0740 0.0090
vn 0.9654 0.0510 0.2558
vn 0.8915 0.0004 0.4530
vn -0.3976 0.5423 -0.7402
vn -0.4882 0.5572 -0.6717
vn -0.4905 0.5689 -0.6601
vn -0.4219 0.6581 -0.6236
vn 0.6174 0.6285 0.4731
vn 0.5686 0.7462 0.3462
vn 0.5520 0.6863 0.4736
vn 0.6045 0.6816 0.4123
vn 0.3278 0.6282 0.7056
vn 0.2546 0.6599 0.7069
vn 0.3199 0.6377 0.7007
vn -0.2359 0.7229 -0.6494
vn -0.2196 0.7267 -0.6509
vn -0.1657 0.7335 -0.6592
vn 0.6933 0.7080 0.1340
vn 0.6620 0.7481 -0.0457
vn 0.5886 0.7735 0.2350
vn 0.6903 0.7221 0.0454
vn -0.6759 0.4618 -0.5744
vn -0.6599 0.4608 -0.5935
vn -0.6368 0.4124 -0.6514
vn -0.6553 0.4802 -0.5831
vn -0.2205 0.9632 -0.1540
vn -0.2271 0.9517 -0.2064
vn -0.1804 0.9655 -0.1875
vn -0.1536 0.9686 -0.1956
vn 0.0461 0.8906 -0.4525
vn -0.0326 0.9219 -0.3861
vn 0.0113 0.8974 -0.4411
vn -0.0965 0.8940 -0.4375
vn -0.0712 -0.8030 -0.5917
vn 0.1061 -0.8044 -0.5845
vn 0.1387 -0.7895 -0.5978
vn -0.0612 -0.9670 -0.2475
vn -0.0653 -0.9809 -0.1831
vn -0.1580 -0.9871 0.0267
vn -0.2926 -0.9056 -0.3070
vn -0.2515 -0.9511 0.1795
vn -0.4813 -0.8537 -0.1989
vn -0.2262 -0.9732 0.0418
vn -0.2365 -0.9630 -0.1293
vn -0.2118 -0.9207 0.3278
vn -0.3453 -0.9278 -0.1412
vn -0.1359 -0.9634 0.2311
vn -0.1629 -0.9852 -0.0537
vn -0.7731 0.0875 0.6282
vn 0.4656 -0.8695 -0.1648
vn 0.5372 -0.8386 -0.0903
vn 0.6029 -0.7757 -0.1865
vn 0.4493 -0.8880 0.0977
vn -0.0457 0.9663 -0.2534
vn 0.7681 0.6218 0.1532
vn 0.8641 0.5025 0.0302
vn 0.8393 0.5336 0.1046
vn 0.9038 0.1881 0.3844
vn 0.9263 0.0551 0.3726
vn 0.8332 0.2581 0.4890
vn 0.4856 0.8716 0.0666
vn 0.7457 0.6353 0.2008
vn 0.3246 0.9458 0.0100
vn 0.7696 0.5598 0.3071
vn 0.7817 0.5345 0.3213
vn 0.7768 0.5546 0.2983
vn 0.7780 0.5377 0.3249
vn 0.7201 0.6005 0.3478
vn 0.6584 0.5551 0.5083
vn 0.7444 0.5628 0.3593
vn 0.6283 0.6203 0.4696
vn 0.7266 0.5597 -0.3984
vn 0.7115 0.5608 -0.4235
vn 0.7886 0.5095 -0.3444
vn 0.2832 0.9490 0.1388
vn 0.8732 -0.4572 0.1686
vn 0.8523 -0.3869 0.3520
vn 0.8242 -0.3933 0.4073
vn 0.7718 -0.5333 0.3463
vn -0.6013 0.3192 0.7325
vn -0.5458 0.4509 0.7062
vn -0.5741 0.3720 0.7294
vn -0.5867 0.4703 0.6593
vn 0.5972 -0.2421 -0.7647
vn 0.5348 -0.3394 -0.7738
vn 0.5784 -0.3568 -0.7336
vn 0.4321 -0.3436 -0.8338
vn 0.6605 -0.6864 0.3044
vn 0.6625 -0.5905 0.4609
vn 0.5602 -0.6555 0.5064
vn 0.5144 -0.7547 0.4073
vn -0.1628 0.2692 0.9492
vn -0.0906 0.3740 0.9230
vn -0.1656 0.2853 0.9440
vn -0.1397 0.4017 0.9051
vn -0.1036 0.4160 0.9035
vn -0.0657 0.5422 0.8377
vn -0.0648 0.4626 0.8842
vn -0.0776 0.5409 0.8375
vn -0.2499 0.8121 -0.5272
vn -0.3278 0.8344 -0.4431
vn -0.3543 0.8176 -0.4538
vn -0.2774 0.8830 -0.3786
vn 0.6873 0.1748 -0.7050
vn 0.6373 0.0741 -0.7671
vn 0.7264 0.0758 -0.6831
vn 0.5807 0.0526 -0.8124
vn 0.8037 0.4886 0.3397
vn 0.8553 0.4570 0.2441
vn 0.8698 0.4101 0.2742
vn 0.8461 0.5139 0.1417
vn -0.1609 0.9416 -0.2959
vn -0.2290 0.9568 -0.1792
vn -0.2263 0.9502 -0.2142
vn -0.1226 0.9823 -0.1416
vn 0.4382 -0.0792 -0.8954
vn 0.3523 -0.1506 -0.9237
vn 0.3746 -0.1730 -0.9109
vn 0.2438 -0.1088 -0.9637
vn 0.4437 -0.8962 0.0012
vn 0.4590 -0.8639 0.2073
vn 0.3617 -0.9195 0.1542
vn 0.2589 -0.9632 0.0720
vn -0.9747 -0.0796 0.2088
vn -0.9583 0.0506 0.2812
vn -0.9719 -0.0349 0.2326
vn -0.9656 0.0277 0.2587
vn 0.1144 -0.9932 0.0216
vn 0.0119 -0.9924 0.1224
vn -0.1113 -0.9935 0.0231
vn -0.0599 -0.9937 -0.0951
vn -0.8370 -0.4723 -0.2765
vn -0.9106 -0.3676 -0.1890
vn -0.8778 -0.4263 -0.2186
vn -0.9136 -0.3420 -0.2200
vn 0.2075 0.9781 -0.0154
vn 0.1419 0.9894 -0.0307
vn 0.1093 0.9939 -0.0154
vn 0.1021 0.9883 0.1130
vn 0.1271 0.5884 0.7985
vn 0.0197 0.4864 0.8735
vn 0.1730 0.5854 0.7921
vn -0.0213 0.5330 0.8458
vn 0.2705 0.9513 0.1480
vn 0.1737 0.9719 0.1590
vn 0.1853 0.9722 0.1428
vn 0.1677 0.9455 0.2793
vn 0.8113 0.4499 0.3733
vn 0.8612 0.4173 0.2901
vn 0.8571 0.3848 0.3425
vn 0.8613 0.4746 0.1816
vn 0.3248 -0.8428 0.4293
vn 0.1725 -0.8347 0.5231
vn 0.1254 -0.8937 0.4307
vn 0.1523 -0.9343 0.3222
usemtl Default
s off
f 1/1/1 41/2/2 42/3/3
f 3/4/4 4/5/5 21/6/6 20/7/7
f 5/8/8 4/9/9 7/10/10 8/11/11
f 8/12/12 7/13/13 9/14/14
f 7/15/15 10/16/16 9/14/17
f 3/17/18 6/18/19 11/19/20 53/20/21
f 12/21/22 3/4/23 53/22/24 55/23/25
f 4/5/26 13/24/27 10/25/28 7/26/29
f 4/5/30 3/4/31 12/27/32 13/28/33
f 9/29/34 10/16/35 8/30/36
f 5/8/37 8/31/38 10/25/39 13/28/40
f 13/32/41 12/33/42 6/34/43 5/35/44
f 11/36/45 6/18/46 12/27/47 55/23/48
f 53/37/49 11/38/49 55/39/49
f 67/40/50 65/41/50 14/42/50 15/43/50
f 64/44/51 67/45/51 15/46/51 16/47/51
f 55/48/52 41/49/53 1/50/54 11/51/55
f 17/52/56 63/53/57 53/54/57
f 1/1/58 18/55/59 17/56/60
f 18/57/61 1/58/62 19/59/63
f 19/60/64 1/58/65 42/3/66
f 63/53/67 17/61/67 14/42/67 65/62/67
f 17/52/68 18/55/69 15/46/70 14/63/71
f 18/57/72 19/64/73 16/65/74 15/43/75
f 17/52/76 53/54/77 11/19/77 1/66/78
f 19/60/79 66/67/79 64/68/79 16/47/79
f 19/60/80 42/3/81 66/67/80
f 22/69/82 23/70/83 27/71/84 26/72/85
f 6/18/86 3/17/87 20/73/88 23/74/89
f 4/9/90 5/8/91 22/75/92 21/76/93
f 5/35/94 6/34/95 23/70/96 22/69/97
f 27/77/98 24/78/99 28/79/100 31/80/101
f 23/74/102 20/73/103 24/78/104 27/77/105
f 20/7/106 21/6/107 25/81/108 24/82/109
f 21/76/110 22/75/111 26/83/112 25/84/113
f 29/85/114 30/86/115 34/87/116 33/88/117
f 24/82/118 25/81/119 29/89/120 28/90/121
f 25/84/122 26/83/123 30/86/124 29/85/125
f 26/72/126 27/71/127 31/91/128 30/92/129
f 35/93/130 32/94/131 36/95/132 39/96/133
f 30/92/134 31/91/135 35/97/136 34/98/137
f 31/80/138 28/79/139 32/94/140 35/93/141
f 28/90/142 29/89/143 33/99/144 32/100/145
f 36/95/146 37/101/147 38/102/148 39/103/149
f 32/100/150 33/99/151 37/104/152 36/105/153
f 33/88/154 34/87/155 38/106/156 37/101/157
f 34/98/158 35/97/159 39/107/160 38/108/161
f 40/109/162 42/3/163 41/2/164
f 44/110/165 68/111/166 69/112/167 45/113/168
f 46/114/169 49/115/170 48/116/171 45/117/172
f 49/118/173 50/119/174 48/120/175
f 48/121/176 50/119/177 51/122/178
f 44/123/179 53/20/180 52/124/181 47/125/182
f 54/126/183 55/23/184 53/22/185 44/110/186
f 45/113/187 48/127/188 51/128/189 56/129/190
f 45/113/191 56/130/192 54/131/193 44/110/194
f 50/132/195 49/133/196 51/122/197
f 46/114/198 56/130/199 51/128/200 49/134/201
f 56/135/202 46/136/203 47/137/204 54/138/205
f 52/139/206 55/23/207 54/131/208 47/125/209
f 53/37/210 55/39/210 52/140/210
f 67/40/50 58/141/50 57/142/50 65/41/50
f 64/44/51 59/143/51 58/144/51 67/45/51
f 55/48/211 52/145/212 40/146/213 41/49/214
f 60/147/215 53/54/57 63/53/57
f 40/109/216 60/148/217 61/149/218
f 61/150/219 62/151/220 40/152/221
f 62/153/222 42/3/223 40/152/224
f 63/53/67 65/62/67 57/142/67 60/154/67
f 60/147/225 57/155/226 58/144/227 61/149/228
f 61/150/229 58/141/230 59/156/231 62/157/232
f 60/147/233 40/158/234 52/124/235 53/54/235
f 62/153/79 59/143/79 64/68/79 66/67/79
f 62/153/80 66/67/80 42/3/236
f 70/159/237 74/160/238 75/161/239 71/162/240
f 47/125/241 71/163/242 68/164/243 44/123/244
f 45/117/245 69/165/246 70/166/247 46/114/248
f 46/136/249 70/159/250 71/162/251 47/137/252
f 75/167/253 79/168/254 76/169/255 72/170/256
f 71/163/257 75/167/258 72/170/259 68/164/260
f 68/111/261 72/171/262 73/172/263 69/112/264
f 69/165/265 73/173/266 74/174/267 70/166/268
f 77/175/269 81/176/270 82/177/271 78/178/272
f 72/171/273 76/179/274 77/180/275 73/172/276
f 73/173/277 77/175/278 78/178/279 74/174/280
f 74/160/281 78/181/282 79/182/283 75/161/284
f 83/183/285 87/184/286 84/185/287 80/186/288
f 78/181/289 82/187/290 83/188/291 79/182/292
f 79/168/293 83/183/294 80/186/295 76/169/296
f 76/179/297 80/189/298 81/190/299 77/180/300
f 84/185/301 87/191/302 86/192/303 85/193/304
f 80/189/305 84/194/306 85/195/307 81/190/308
f 81/176/309 85/193/310 86/196/311 82/177/312
f 82/187/313 86/197/314 87/198/315 83/188/316
