{
    "asset" : {
        "generator" : "Khronos glTF Blender I/O v1.4.40",
        "version" : "2.0"
    },
    "scene" : 0,
    "scenes" : [
        {
            "name" : "Scene",
            "nodes" : [
                0
            ]
        }
    ],
    "nodes" : [
        {
            "mesh" : 0,
            "name" : "Spaceship"
        }
    ],
    "materials" : [
        {
            "doubleSided" : true,
            "name" : "hull.007",
            "normalTexture" : {
                "index" : 0,
                "texCoord" : 0
            },
            "pbrMetallicRoughness" : {
                "baseColorFactor" : [
                    0.3113333284854889,
                    0.34726813435554504,
                    0.5028862357139587,
                    1
                ],
                "metallicFactor" : 0,
                "roughnessFactor" : 0.5
            }
        },
        {
            "doubleSided" : true,
            "emissiveFactor" : [
                1,
                1,
                1
            ],
            "emissiveTexture" : {
                "index" : 1,
                "texCoord" : 0
            },
            "name" : "hull_lights.007",
            "normalTexture" : {
                "index" : 2,
                "texCoord" : 0
            },
            "pbrMetallicRoughness" : {
                "baseColorTexture" : {
                    "index" : 3,
                    "texCoord" : 0
                },
                "metallicFactor" : 0,
                "roughnessFactor" : 0.5
            }
        },
        {
            "doubleSided" : true,
            "name" : "hull_dark.007",
            "normalTexture" : {
                "index" : 4,
                "texCoord" : 0
            },
            "pbrMetallicRoughness" : {
                "baseColorFactor" : [
                    0.0934000015258789,
                    0.10418044030666351,
                    0.15086586773395538,
                    1
                ],
                "metallicFactor" : 0,
                "roughnessFactor" : 0.5
            }
        },
        {
            "doubleSided" : true,
            "emissiveFactor" : [
                0.25523003935813904,
                1,
                0.4220430254936218
            ],
            "name" : "exhaust_burn.007",
            "pbrMetallicRoughness" : {
                "baseColorFactor" : [
                    0.800000011920929,
                    0.800000011920929,
                    0.800000011920929,
                    1
                ],
                "metallicFactor" : 0,
                "roughnessFactor" : 0.5
            }
        },
        {
            "doubleSided" : true,
            "emissiveFactor" : [
                0.25523003935813904,
                1,
                0.4220430254936218
            ],
            "name" : "glow_disc.007",
            "pbrMetallicRoughness" : {
                "baseColorFactor" : [
                    0.800000011920929,
                    0.800000011920929,
                    0.800000011920929,
                    1
                ],
                "metallicFactor" : 0,
                "roughnessFactor" : 0.5
            }
        }
    ],
    "meshes" : [
        {
            "name" : "Mesh.007",
            "primitives" : [
                {
                    "attributes" : {
                        "POSITION" : 0,
                        "NORMAL" : 1
                    },
                    "indices" : 2,
                    "material" : 0
                },
                {
                    "attributes" : {
                        "POSITION" : 3,
                        "NORMAL" : 4
                    },
                    "indices" : 5,
                    "material" : 1
                },
                {
                    "attributes" : {
                        "POSITION" : 6,
                        "NORMAL" : 7
                    },
                    "indices" : 8,
                    "material" : 2
                },
                {
                    "attributes" : {
                        "POSITION" : 9,
                        "NORMAL" : 10
                    },
                    "indices" : 11,
                    "material" : 3
                },
                {
                    "attributes" : {
                        "POSITION" : 12,
                        "NORMAL" : 13
                    },
                    "indices" : 14,
                    "material" : 4
                }
            ]
        }
    ],
    "textures" : [
        {
            "sampler" : 0,
            "source" : 0
        },
        {
            "sampler" : 0,
            "source" : 1
        },
        {
            "sampler" : 0,
            "source" : 0
        },
        {
            "sampler" : 0,
            "source" : 2
        },
        {
            "sampler" : 0,
            "source" : 0
        }
    ],
    "images" : [
        {
            "mimeType" : "image/png",
            "name" : "hull_normal",
            "uri" : "hull_normal.png"
        },
        {
            "mimeType" : "image/png",
            "name" : "hull_lights_emit",
            "uri" : "hull_lights_emit.png"
        },
        {
            "mimeType" : "image/png",
            "name" : "hull_lights_diffuse",
            "uri" : "hull_lights_diffuse.png"
        }
    ],
    "accessors" : [
        {
            "bufferView" : 0,
            "componentType" : 5126,
            "count" : 68800,
            "max" : [
                16.080707550048828,
                3.179006338119507,
                1.7160627841949463
            ],
            "min" : [
                -9.553282737731934,
                -4.9381585121154785,
                -1.7160630226135254
            ],
            "type" : "VEC3"
        },
        {
            "bufferView" : 1,
            "componentType" : 5126,
            "count" : 68800,
            "type" : "VEC3"
        },
        {
            "bufferView" : 2,
            "componentType" : 5125,
            "count" : 107556,
            "type" : "SCALAR"
        },
        {
            "bufferView" : 3,
            "componentType" : 5126,
            "count" : 2486,
            "max" : [
                16.080707550048828,
                3.1311519145965576,
                0.974807858467102
            ],
            "min" : [
                -8.554512023925781,
                -4.9381585121154785,
                -0.9748079776763916
            ],
            "type" : "VEC3"
        },
        {
            "bufferView" : 4,
            "componentType" : 5126,
            "count" : 2486,
            "type" : "VEC3"
        },
        {
            "bufferView" : 5,
            "componentType" : 5123,
            "count" : 4080,
            "type" : "SCALAR"
        },
        {
            "bufferView" : 6,
            "componentType" : 5126,
            "count" : 2296,
            "max" : [
                11.269030570983887,
                2.740715265274048,
                0.5430575609207153
            ],
            "min" : [
                -9.654463768005371,
                -3.230940341949463,
                -0.5430576801300049
            ],
            "type" : "VEC3"
        },
        {
            "bufferView" : 7,
            "componentType" : 5126,
            "count" : 2296,
            "type" : "VEC3"
        },
        {
            "bufferView" : 8,
            "componentType" : 5123,
            "count" : 3318,
            "type" : "SCALAR"
        },
        {
            "bufferView" : 9,
            "componentType" : 5126,
            "count" : 180,
            "max" : [
                10.893830299377441,
                0.8212563991546631,
                0.4638529419898987
            ],
            "min" : [
                -9.563458442687988,
                -3.189340591430664,
                -0.46385306119918823
            ],
            "type" : "VEC3"
        },
        {
            "bufferView" : 10,
            "componentType" : 5126,
            "count" : 180,
            "type" : "VEC3"
        },
        {
            "bufferView" : 11,
            "componentType" : 5123,
            "count" : 276,
            "type" : "SCALAR"
        },
        {
            "bufferView" : 12,
            "componentType" : 5126,
            "count" : 288,
            "max" : [
                14.346490859985352,
                -0.9528825879096985,
                0.27926114201545715
            ],
            "min" : [
                5.060999870300293,
                -4.574483394622803,
                -0.2792612612247467
            ],
            "type" : "VEC3"
        },
        {
            "bufferView" : 13,
            "componentType" : 5126,
            "count" : 288,
            "type" : "VEC3"
        },
        {
            "bufferView" : 14,
            "componentType" : 5123,
            "count" : 432,
            "type" : "SCALAR"
        }
    ],
    "bufferViews" : [
        {
            "buffer" : 0,
            "byteLength" : 825600,
            "byteOffset" : 0
        },
        {
            "buffer" : 0,
            "byteLength" : 825600,
            "byteOffset" : 825600
        },
        {
            "buffer" : 0,
            "byteLength" : 430224,
            "byteOffset" : 1651200
        },
        {
            "buffer" : 0,
            "byteLength" : 29832,
            "byteOffset" : 2081424
        },
        {
            "buffer" : 0,
            "byteLength" : 29832,
            "byteOffset" : 2111256
        },
        {
            "buffer" : 0,
            "byteLength" : 8160,
            "byteOffset" : 2141088
        },
        {
            "buffer" : 0,
            "byteLength" : 27552,
            "byteOffset" : 2149248
        },
        {
            "buffer" : 0,
            "byteLength" : 27552,
            "byteOffset" : 2176800
        },
        {
            "buffer" : 0,
            "byteLength" : 6636,
            "byteOffset" : 2204352
        },
        {
            "buffer" : 0,
            "byteLength" : 2160,
            "byteOffset" : 2210988
        },
        {
            "buffer" : 0,
            "byteLength" : 2160,
            "byteOffset" : 2213148
        },
        {
            "buffer" : 0,
            "byteLength" : 552,
            "byteOffset" : 2215308
        },
        {
            "buffer" : 0,
            "byteLength" : 3456,
            "byteOffset" : 2215860
        },
        {
            "buffer" : 0,
            "byteLength" : 3456,
            "byteOffset" : 2219316
        },
        {
            "buffer" : 0,
            "byteLength" : 864,
            "byteOffset" : 2222772
        }
    ],
    "samplers" : [
        {
            "magFilter" : 9729,
            "minFilter" : 9986
        }
    ],
    "buffers" : [
        {
            "byteLength" : 2223636,
            "uri" : "gen1.bin"
        }
    ]
}
